# xmcd
#
# Track frame offsets:
#	150
#	8268
#	18868
#	31040
#	44480
#	54001
#	63962
#	77591
#	86677
#	97513
#
# Disc length: 1416 seconds
#
# Revision: 1
# Processed by: cddbd v1.5.2PL0 Copyright (c) Steve Scherf et al.
# Submitted via: dBpowerAMP V4.0
#
DISCID=5505860a
DTITLE=Various Artist - Opry Country Classics Vol 2
DYEAR=2009
DGENRE=Country
TTITLE0=Ernest Tubb - Walking the Floor Over You
TTITLE1=Loretta Lynn - You Ain't Woman Enough
TTITLE2=The Carter Family  - Keep on the Sunny Side
TTITLE3=Marty Robbins - El Paso
TTITLE4=Jean Sheppard - Second Fiddle to an Old Guitar
TTITLE5=The Browns - The Three Bells
TTITLE6=Bill Anderson - Still
TTITLE7=Flatt and Scruggs - Salty Dog Blues
TTITLE8=Connie Smith - Once a Day
TTITLE9=Jonny Cash - Folsom Prison Blues
EXTD=
EXTT0=
EXTT1=
EXTT2=
EXTT3=
EXTT4=
EXTT5=
EXTT6=
EXTT7=
EXTT8=
EXTT9=
PLAYORDER=
